<?xml version="1.0" encoding="utf-8"?>
<!-- Generator: Adobe Illustrator 23.0.0, SVG Export Plug-In . SVG Version: 6.00 Build 0)  -->
<svg version="1.1" id="图层_1" xmlns="http://www.w3.org/2000/svg" xmlns:xlink="http://www.w3.org/1999/xlink" x="0px" y="0px"
	 viewBox="0 0 248.77 144.24" style="enable-background:new 0 0 248.77 144.24;" xml:space="preserve">
<style type="text/css">
	.st0{clip-path:url(#SVGID_2_);fill:#0F1116;}
	.st1{clip-path:url(#SVGID_2_);}
	.st2{opacity:0.3;clip-path:url(#SVGID_4_);}
	
		.st3{clip-path:url(#SVGID_6_);fill:none;stroke:#6D7381;stroke-width:0.5;stroke-linecap:round;stroke-linejoin:round;stroke-miterlimit:10;}
	
		.st4{clip-path:url(#SVGID_4_);fill:none;stroke:#6D7381;stroke-width:0.5;stroke-linecap:round;stroke-linejoin:round;stroke-miterlimit:10;}
	.st5{opacity:0.4;clip-path:url(#SVGID_4_);}
	.st6{clip-path:url(#SVGID_8_);fill:none;stroke:#6D7381;stroke-linecap:round;stroke-linejoin:round;stroke-miterlimit:10;}
	
		.st7{clip-path:url(#SVGID_4_);fill:none;stroke:#6D7381;stroke-width:0.25;stroke-linecap:round;stroke-linejoin:round;stroke-miterlimit:10;}
	.st8{clip-path:url(#SVGID_10_);fill:none;stroke:#6D7381;stroke-linecap:round;stroke-linejoin:round;stroke-miterlimit:10;}
	.st9{opacity:0.15;clip-path:url(#SVGID_4_);}
	
		.st10{clip-path:url(#SVGID_12_);fill:none;stroke:#6D7381;stroke-width:0.5;stroke-linecap:round;stroke-linejoin:round;stroke-miterlimit:10;}
	.st11{clip-path:url(#SVGID_14_);fill:none;stroke:#6D7381;stroke-linecap:round;stroke-linejoin:round;stroke-miterlimit:10;}
	.st12{clip-path:url(#SVGID_16_);fill:none;stroke:#6D7381;stroke-linecap:round;stroke-linejoin:round;stroke-miterlimit:10;}
	.st13{opacity:0.7;clip-path:url(#SVGID_4_);}
	
		.st14{clip-path:url(#SVGID_18_);fill:none;stroke:#6D7381;stroke-width:0.5;stroke-linecap:round;stroke-linejoin:round;stroke-miterlimit:10;}
	
		.st15{clip-path:url(#SVGID_20_);fill:none;stroke:#6D7381;stroke-width:0.5;stroke-linecap:round;stroke-linejoin:round;stroke-miterlimit:10;}
	.st16{clip-path:url(#SVGID_22_);fill:none;stroke:#6D7381;stroke-linecap:round;stroke-linejoin:round;stroke-miterlimit:10;}
	.st17{clip-path:url(#SVGID_24_);fill:none;stroke:#6D7381;stroke-linecap:round;stroke-linejoin:round;stroke-miterlimit:10;}
	
		.st18{clip-path:url(#SVGID_26_);fill:none;stroke:#6D7381;stroke-width:0.25;stroke-linecap:round;stroke-linejoin:round;stroke-miterlimit:10;}
	.st19{clip-path:url(#SVGID_28_);fill:none;stroke:#6D7381;stroke-linecap:round;stroke-linejoin:round;stroke-miterlimit:10;}
	
		.st20{clip-path:url(#SVGID_30_);fill:none;stroke:#6D7381;stroke-width:0.75;stroke-linecap:round;stroke-linejoin:round;stroke-miterlimit:10;}
	.st21{clip-path:url(#SVGID_32_);fill:none;stroke:#6D7381;stroke-linecap:round;stroke-linejoin:round;stroke-miterlimit:10;}
	.st22{clip-path:url(#SVGID_34_);fill:none;stroke:#6D7381;stroke-linecap:round;stroke-linejoin:round;stroke-miterlimit:10;}
	.st23{clip-path:url(#SVGID_36_);fill:none;stroke:#6D7381;stroke-linecap:round;stroke-linejoin:round;stroke-miterlimit:10;}
	.st24{clip-path:url(#SVGID_38_);fill:none;stroke:#6D7381;stroke-linecap:round;stroke-linejoin:round;stroke-miterlimit:10;}
	.st25{clip-path:url(#SVGID_40_);fill:none;stroke:#6D7381;stroke-linecap:round;stroke-linejoin:round;stroke-miterlimit:10;}
	
		.st26{clip-path:url(#SVGID_42_);fill:none;stroke:#6D7381;stroke-width:0.5;stroke-linecap:round;stroke-linejoin:round;stroke-miterlimit:10;}
	
		.st27{clip-path:url(#SVGID_44_);fill:none;stroke:#6D7381;stroke-width:0.5;stroke-linecap:round;stroke-linejoin:round;stroke-miterlimit:10;}
	.st28{opacity:0.5;clip-path:url(#SVGID_4_);}
	
		.st29{clip-path:url(#SVGID_46_);fill:none;stroke:#6D7381;stroke-width:0.75;stroke-linecap:round;stroke-linejoin:round;stroke-miterlimit:10;}
	.st30{opacity:0.6;clip-path:url(#SVGID_4_);}
	
		.st31{clip-path:url(#SVGID_48_);fill:none;stroke:#6D7381;stroke-width:0.25;stroke-linecap:round;stroke-linejoin:round;stroke-miterlimit:10;}
	
		.st32{clip-path:url(#SVGID_50_);fill:none;stroke:#6D7381;stroke-width:0.5;stroke-linecap:round;stroke-linejoin:round;stroke-miterlimit:10;}
	
		.st33{clip-path:url(#SVGID_52_);fill:none;stroke:#6D7381;stroke-width:0.25;stroke-linecap:round;stroke-linejoin:round;stroke-miterlimit:10;}
	
		.st34{clip-path:url(#SVGID_54_);fill:none;stroke:#6D7381;stroke-width:0.25;stroke-linecap:round;stroke-linejoin:round;stroke-miterlimit:10;}
	.st35{opacity:0.19;clip-path:url(#SVGID_4_);}
	
		.st36{clip-path:url(#SVGID_56_);fill:none;stroke:#6D7381;stroke-width:0.5;stroke-linecap:round;stroke-linejoin:round;stroke-miterlimit:10;}
	
		.st37{clip-path:url(#SVGID_58_);fill:none;stroke:#6D7381;stroke-width:0.5;stroke-linecap:round;stroke-linejoin:round;stroke-miterlimit:10;}
	
		.st38{clip-path:url(#SVGID_60_);fill:none;stroke:#6D7381;stroke-width:0.5;stroke-linecap:round;stroke-linejoin:round;stroke-miterlimit:10;}
	
		.st39{clip-path:url(#SVGID_62_);fill:none;stroke:#6D7381;stroke-width:0.5;stroke-linecap:round;stroke-linejoin:round;stroke-miterlimit:10;}
	
		.st40{clip-path:url(#SVGID_64_);fill:none;stroke:#6D7381;stroke-width:0.5;stroke-linecap:round;stroke-linejoin:round;stroke-miterlimit:10;}
	
		.st41{clip-path:url(#SVGID_66_);fill:none;stroke:#6D7381;stroke-width:0.25;stroke-linecap:round;stroke-linejoin:round;stroke-miterlimit:10;}
	
		.st42{clip-path:url(#SVGID_68_);fill:none;stroke:#6D7381;stroke-width:0.25;stroke-linecap:round;stroke-linejoin:round;stroke-miterlimit:10;}
	
		.st43{clip-path:url(#SVGID_70_);fill:none;stroke:#6D7381;stroke-width:0.25;stroke-linecap:round;stroke-linejoin:round;stroke-miterlimit:10;}
	
		.st44{clip-path:url(#SVGID_72_);fill:none;stroke:#6D7381;stroke-width:0.5;stroke-linecap:round;stroke-linejoin:round;stroke-miterlimit:10;}
	
		.st45{clip-path:url(#SVGID_74_);fill:none;stroke:#6D7381;stroke-width:0.5;stroke-linecap:round;stroke-linejoin:round;stroke-miterlimit:10;}
	
		.st46{clip-path:url(#SVGID_76_);fill:none;stroke:#6D7381;stroke-width:0.25;stroke-linecap:round;stroke-linejoin:round;stroke-miterlimit:10;}
	
		.st47{clip-path:url(#SVGID_78_);fill:none;stroke:#6D7381;stroke-width:0.5;stroke-linecap:round;stroke-linejoin:round;stroke-miterlimit:10;}
	
		.st48{clip-path:url(#SVGID_80_);fill:none;stroke:#6D7381;stroke-width:0.25;stroke-linecap:round;stroke-linejoin:round;stroke-miterlimit:10;}
	
		.st49{clip-path:url(#SVGID_82_);fill:none;stroke:#6D7381;stroke-width:0.5;stroke-linecap:round;stroke-linejoin:round;stroke-miterlimit:10;}
	
		.st50{clip-path:url(#SVGID_84_);fill:none;stroke:#6D7381;stroke-width:0.5;stroke-linecap:round;stroke-linejoin:round;stroke-miterlimit:10;}
	
		.st51{clip-path:url(#SVGID_86_);fill:none;stroke:#6D7381;stroke-width:0.5;stroke-linecap:round;stroke-linejoin:round;stroke-miterlimit:10;}
	
		.st52{clip-path:url(#SVGID_88_);fill:none;stroke:#6D7381;stroke-width:0.5;stroke-linecap:round;stroke-linejoin:round;stroke-miterlimit:10;}
	
		.st53{clip-path:url(#SVGID_90_);fill:none;stroke:#6D7381;stroke-width:0.5;stroke-linecap:round;stroke-linejoin:round;stroke-miterlimit:10;}
	
		.st54{clip-path:url(#SVGID_92_);fill:none;stroke:#6D7381;stroke-width:0.5;stroke-linecap:round;stroke-linejoin:round;stroke-miterlimit:10;}
</style>
<g>
	<defs>
		<rect id="SVGID_1_" width="248.77" height="144.24"/>
	</defs>
	<clipPath id="SVGID_2_">
		<use xlink:href="#SVGID_1_"  style="overflow:visible;"/>
	</clipPath>
	<rect class="st0" width="248.77" height="144.24"/>
	<g class="st1">
		<defs>
			<rect id="SVGID_3_" width="248.77" height="144.24"/>
		</defs>
		<clipPath id="SVGID_4_">
			<use xlink:href="#SVGID_3_"  style="overflow:visible;"/>
		</clipPath>
		<g class="st2">
			<g>
				<defs>
					<rect id="SVGID_5_" x="138.34" y="64.44" width="2.32" height="13.16"/>
				</defs>
				<clipPath id="SVGID_6_">
					<use xlink:href="#SVGID_5_"  style="overflow:visible;"/>
				</clipPath>
				<path class="st3" d="M139.54,77.35c0.08-0.25,0.16-0.5,0.24-0.75c0.16-0.54,0.29-1.1,0.39-1.66c0.16-0.92,0.25-1.86,0.25-2.82
					c0-0.63-0.04-1.24-0.11-1.85c-0.05-0.45-0.12-0.9-0.21-1.34c-0.09-0.44-0.2-0.87-0.32-1.3c-0.14-0.48-0.3-0.95-0.48-1.41
					c-0.21-0.53-0.44-1.04-0.7-1.53"/>
			</g>
		</g>
		<path class="st4" d="M131.37,86.55c1.64-0.8,3.13-1.87,4.4-3.15"/>
		<path class="st4" d="M116.06,85.82c0.49,0.3,1,0.57,1.53,0.82c0.53,0.25,1.08,0.47,1.64,0.66c0.56,0.19,1.14,0.35,1.73,0.48
			c1.1,0.24,2.25,0.37,3.42,0.37c0.4,0,0.79-0.01,1.19-0.04c0.75-0.06,1.49-0.16,2.2-0.32"/>
		<g class="st5">
			<g>
				<defs>
					<rect id="SVGID_7_" x="107.85" y="65.75" width="5.14" height="17.62"/>
				</defs>
				<clipPath id="SVGID_8_">
					<use xlink:href="#SVGID_7_"  style="overflow:visible;"/>
				</clipPath>
				<path class="st6" d="M109.46,66.25c-0.23,0.57-0.42,1.16-0.58,1.77c-0.35,1.31-0.53,2.68-0.53,4.1c0,1.18,0.13,2.33,0.37,3.43
					c0.17,0.8,0.41,1.57,0.7,2.32c0.14,0.35,0.28,0.7,0.44,1.04c0.38,0.8,0.81,1.56,1.31,2.28c0.41,0.59,0.85,1.15,1.33,1.68"/>
			</g>
		</g>
		<path class="st4" d="M127.95,56.49c-0.71-0.16-1.44-0.28-2.18-0.34c-0.46-0.04-0.92-0.06-1.38-0.06c-0.65,0-1.3,0.04-1.93,0.11
			c-0.63,0.08-1.26,0.19-1.86,0.34c-0.66,0.16-1.31,0.36-1.94,0.6c-0.26,0.1-0.53,0.21-0.78,0.32"/>
		<path class="st7" d="M136.66,61.81c-0.35-0.42-0.73-0.82-1.12-1.2c-0.5-0.49-1.03-0.94-1.59-1.36"/>
		<path class="st7" d="M136.08,48.61c-1.02-0.51-2.07-0.94-3.15-1.31"/>
		<path class="st7" d="M142.23,52.85c-0.6-0.55-1.22-1.08-1.86-1.57"/>
		<path class="st7" d="M146.36,86.5c1.64-2.51,2.82-5.26,3.53-8.14c0.27-1.11,0.47-2.23,0.6-3.37c0.13-1.14,0.18-2.3,0.15-3.46
			c-0.02-0.81-0.07-1.62-0.16-2.43c-0.09-0.81-0.22-1.61-0.39-2.42c-0.09-0.42-0.19-0.84-0.3-1.25"/>
		<path class="st7" d="M124.23,98.38c0.95,0.01,1.89-0.04,2.84-0.14c0.96-0.1,1.92-0.25,2.87-0.46c0.95-0.21,1.9-0.47,2.83-0.78
			c1.75-0.59,3.47-1.38,5.12-2.37c0.56-0.34,1.1-0.69,1.63-1.06c1.01-0.71,1.95-1.48,2.83-2.3"/>
		<path class="st7" d="M98.48,76.45c0.17,0.99,0.39,1.99,0.67,2.97c0.62,2.13,1.52,4.22,2.71,6.21c0.99,1.65,2.14,3.16,3.41,4.51
			c0.92,0.98,1.9,1.87,2.94,2.68c0.49,0.38,0.98,0.74,1.49,1.08c1.2,0.81,2.46,1.51,3.76,2.11c1.07,0.49,2.16,0.9,3.28,1.24"/>
		<path class="st7" d="M110.87,49.6c-0.92,0.55-1.79,1.15-2.62,1.79c-0.83,0.64-1.61,1.32-2.34,2.05c-0.79,0.78-1.53,1.61-2.21,2.48
			c-0.29,0.37-0.56,0.74-0.83,1.12"/>
		<path class="st7" d="M126.97,45.99c-1.14-0.11-2.29-0.15-3.44-0.12c-2.45,0.08-4.91,0.5-7.31,1.29"/>
		<path class="st4" d="M143.65,47.36c-0.62-0.48-1.24-0.93-1.88-1.36"/>
		<path class="st7" d="M155.67,69.8c-0.1-1.38-0.3-2.74-0.58-4.09c-0.19-0.91-0.42-1.81-0.69-2.7c-0.21-0.69-0.44-1.37-0.7-2.04
			c-0.4-1.06-0.86-2.1-1.38-3.11c-0.52-1.03-1.1-2.03-1.74-3"/>
		<path class="st7" d="M136.82,100.93c1.22-0.53,2.41-1.13,3.56-1.81c1.04-0.61,2.04-1.29,3.01-2.03c2.11-1.61,4.04-3.51,5.75-5.7
			c0.71-0.91,1.36-1.85,1.95-2.8c0.59-0.96,1.13-1.94,1.61-2.94c0.69-1.44,1.26-2.92,1.72-4.43c0.21-0.71,0.4-1.42,0.56-2.13"/>
		<g class="st5">
			<g>
				<defs>
					<rect id="SVGID_9_" x="111.03" y="100.25" width="17.02" height="3.75"/>
				</defs>
				<clipPath id="SVGID_10_">
					<use xlink:href="#SVGID_9_"  style="overflow:visible;"/>
				</clipPath>
				<path class="st8" d="M111.53,100.75c1.22,0.55,2.46,1.01,3.72,1.39c0.53,0.16,1.07,0.31,1.6,0.44c1.76,0.43,3.54,0.71,5.33,0.84
					c1.79,0.12,3.58,0.09,5.36-0.09"/>
			</g>
		</g>
		<g class="st9">
			<g>
				<defs>
					<rect id="SVGID_11_" x="93.9" y="80.25" width="11.47" height="16.88"/>
				</defs>
				<clipPath id="SVGID_12_">
					<use xlink:href="#SVGID_11_"  style="overflow:visible;"/>
				</clipPath>
				<path class="st10" d="M94.15,80.5c0.36,1.32,0.82,2.62,1.35,3.88c1.14,2.7,2.68,5.26,4.58,7.59c0.9,1.1,1.89,2.16,2.96,3.15
					c0.66,0.61,1.35,1.19,2.07,1.75"/>
			</g>
		</g>
		<g class="st9">
			<g>
				<defs>
					<rect id="SVGID_13_" x="92.51" y="66.01" width="1.5" height="7.79"/>
				</defs>
				<clipPath id="SVGID_14_">
					<use xlink:href="#SVGID_13_"  style="overflow:visible;"/>
				</clipPath>
				<path class="st11" d="M93.51,66.51c-0.16,0.9-0.29,1.81-0.37,2.72c-0.12,1.36-0.16,2.72-0.11,4.07"/>
			</g>
		</g>
		<g class="st9">
			<g>
				<defs>
					<rect id="SVGID_15_" x="94.72" y="55.34" width="3.35" height="5.71"/>
				</defs>
				<clipPath id="SVGID_16_">
					<use xlink:href="#SVGID_15_"  style="overflow:visible;"/>
				</clipPath>
				<path class="st12" d="M97.57,55.84c-0.46,0.76-0.89,1.54-1.28,2.32c-0.39,0.79-0.75,1.58-1.07,2.39"/>
			</g>
		</g>
		<g class="st13">
			<g>
				<defs>
					<rect id="SVGID_17_" x="103.14" y="42.87" width="9.52" height="6.18"/>
				</defs>
				<clipPath id="SVGID_18_">
					<use xlink:href="#SVGID_17_"  style="overflow:visible;"/>
				</clipPath>
				<path class="st14" d="M112.41,43.12c-0.89,0.37-1.77,0.78-2.63,1.23c-0.86,0.45-1.7,0.94-2.52,1.48
					c-0.43,0.28-0.85,0.57-1.27,0.87c-0.9,0.65-1.76,1.35-2.6,2.1"/>
			</g>
		</g>
		<g class="st13">
			<g>
				<defs>
					<rect id="SVGID_19_" x="120.09" y="40.5" width="12.58" height="1.54"/>
				</defs>
				<clipPath id="SVGID_20_">
					<use xlink:href="#SVGID_19_"  style="overflow:visible;"/>
				</clipPath>
				<path class="st15" d="M132.42,41.79c-0.5-0.13-0.99-0.25-1.49-0.35c-3.5-0.74-7.08-0.88-10.59-0.42"/>
			</g>
		</g>
		<path class="st7" d="M155.23,37.03c-1.89-1.66-3.91-3.17-6.05-4.52c-1.46-0.91-2.97-1.75-4.53-2.5c-1.62-0.78-3.29-1.47-5-2.06"/>
		<path class="st7" d="M166.08,51.04c-0.64-1.27-1.35-2.51-2.1-3.71"/>
		<g class="st2">
			<g>
				<defs>
					<rect id="SVGID_21_" x="168.63" y="58.16" width="2.92" height="12.25"/>
				</defs>
				<clipPath id="SVGID_22_">
					<use xlink:href="#SVGID_21_"  style="overflow:visible;"/>
				</clipPath>
				<path class="st16" d="M171.05,69.92c-0.09-1.86-0.28-3.69-0.58-5.49c-0.33-1.96-0.78-3.88-1.34-5.76"/>
			</g>
		</g>
		<g class="st5">
			<g>
				<defs>
					<rect id="SVGID_23_" x="162.92" y="79.07" width="8.08" height="19.22"/>
				</defs>
				<clipPath id="SVGID_24_">
					<use xlink:href="#SVGID_23_"  style="overflow:visible;"/>
				</clipPath>
				<path class="st17" d="M163.42,97.79c1.16-1.77,2.21-3.62,3.13-5.55c0.98-2.05,1.82-4.19,2.49-6.4c0.62-2.03,1.11-4.12,1.45-6.27
					"/>
			</g>
		</g>
		<g class="st13">
			<g>
				<defs>
					<rect id="SVGID_25_" x="146.46" y="106.89" width="9.11" height="6.46"/>
				</defs>
				<clipPath id="SVGID_26_">
					<use xlink:href="#SVGID_25_"  style="overflow:visible;"/>
				</clipPath>
				<path class="st18" d="M146.58,113.23c1.78-0.96,3.5-2.04,5.13-3.23c1.29-0.93,2.54-1.93,3.72-2.99"/>
			</g>
		</g>
		<g class="st5">
			<g>
				<defs>
					<rect id="SVGID_27_" x="101.51" y="112.64" width="37.29" height="6.7"/>
				</defs>
				<clipPath id="SVGID_28_">
					<use xlink:href="#SVGID_27_"  style="overflow:visible;"/>
				</clipPath>
				<path class="st19" d="M102.01,113.14c1.27,0.69,2.58,1.33,3.92,1.91c0.7,0.3,1.41,0.58,2.13,0.85c1.54,0.58,3.13,1.07,4.75,1.49
					c2.62,0.67,5.34,1.12,8.14,1.32c1.81,0.13,3.61,0.16,5.39,0.09c1.32-0.05,2.64-0.16,3.93-0.33c1.3-0.16,2.58-0.38,3.85-0.65
					c1.42-0.3,2.82-0.67,4.19-1.1"/>
			</g>
		</g>
		<g class="st5">
			<g>
				<defs>
					<rect id="SVGID_29_" x="77.29" y="44.6" width="16.53" height="62.9"/>
				</defs>
				<clipPath id="SVGID_30_">
					<use xlink:href="#SVGID_29_"  style="overflow:visible;"/>
				</clipPath>
				<path class="st20" d="M86.36,44.98c-0.98,1.37-1.89,2.8-2.72,4.27c-0.84,1.5-1.6,3.04-2.28,4.64s-1.27,3.24-1.76,4.92
					c-0.93,3.15-1.55,6.46-1.8,9.87c-0.08,1.16-0.13,2.31-0.13,3.46c0,2.19,0.15,4.35,0.44,6.47c0.41,2.96,1.1,5.83,2.04,8.59
					c0.25,0.72,0.51,1.44,0.79,2.14c1.97,4.95,4.76,9.5,8.22,13.47c1.33,1.53,2.76,2.97,4.28,4.32"/>
			</g>
		</g>
		<g class="st5">
			<g>
				<defs>
					<rect id="SVGID_31_" x="95.18" y="25.37" width="23.09" height="10.39"/>
				</defs>
				<clipPath id="SVGID_32_">
					<use xlink:href="#SVGID_31_"  style="overflow:visible;"/>
				</clipPath>
				<path class="st21" d="M117.77,25.87c-2.36,0.34-4.66,0.85-6.9,1.52c-1.05,0.32-2.09,0.67-3.1,1.06
					c-2.4,0.92-4.72,2.03-6.92,3.31c-1.8,1.05-3.53,2.22-5.16,3.5"/>
			</g>
		</g>
		<path class="st7" d="M152.04,99.5c1.19-1.2,2.3-2.48,3.32-3.82c1.03-1.36,1.98-2.79,2.83-4.28c0.6-1.04,1.14-2.11,1.64-3.21
			c0.5-1.1,0.95-2.22,1.34-3.37c0.21-0.6,0.4-1.21,0.58-1.82c0.38-1.32,0.7-2.67,0.94-4.04c0.39-2.22,0.6-4.51,0.6-6.84
			c0-1.52-0.09-3.01-0.26-4.48c-0.13-1.1-0.3-2.18-0.51-3.25c-0.21-1.07-0.47-2.12-0.77-3.15c-0.34-1.16-0.73-2.3-1.17-3.41
			c-0.5-1.28-1.07-2.52-1.71-3.72c-0.53-1.01-1.1-1.99-1.71-2.94c-0.91-1.42-1.91-2.78-3-4.07c-0.85-1.02-1.76-1.99-2.71-2.91
			c-1.22-1.18-2.51-2.28-3.87-3.29c-1.36-1.01-2.79-1.94-4.28-2.77c-3.18-1.77-6.63-3.11-10.27-3.94c-1.73-0.39-3.5-0.67-5.3-0.82
			c-1.11-0.09-2.23-0.14-3.36-0.14c-1.59,0-3.16,0.1-4.69,0.28"/>
		<g class="st2">
			<g>
				<defs>
					<rect id="SVGID_33_" x="123.88" y="107.44" width="16.24" height="4.1"/>
				</defs>
				<clipPath id="SVGID_34_">
					<use xlink:href="#SVGID_33_"  style="overflow:visible;"/>
				</clipPath>
				<path class="st22" d="M124.38,111.03c0.97,0,1.93-0.03,2.88-0.11c1.82-0.13,3.6-0.39,5.35-0.77c2.43-0.52,4.78-1.27,7.01-2.23"
					/>
			</g>
		</g>
		<g class="st2">
			<g>
				<defs>
					<rect id="SVGID_35_" x="101.43" y="103.41" width="10.94" height="6.07"/>
				</defs>
				<clipPath id="SVGID_36_">
					<use xlink:href="#SVGID_35_"  style="overflow:visible;"/>
				</clipPath>
				<path class="st23" d="M101.93,103.91c0.73,0.51,1.47,1.01,2.23,1.47c1.2,0.73,2.44,1.4,3.72,1.99c1.29,0.61,2.63,1.14,3.99,1.61
					"/>
			</g>
		</g>
		<g class="st2">
			<g>
				<defs>
					<rect id="SVGID_37_" x="84.97" y="71.62" width="3.58" height="14.97"/>
				</defs>
				<clipPath id="SVGID_38_">
					<use xlink:href="#SVGID_37_"  style="overflow:visible;"/>
				</clipPath>
				<path class="st24" d="M85.47,72.12c0,2.86,0.31,5.65,0.89,8.33c0.42,1.94,0.99,3.82,1.69,5.64"/>
			</g>
		</g>
		<g class="st2">
			<g>
				<defs>
					<rect id="SVGID_39_" x="87.66" y="35.27" width="23.3" height="23.1"/>
				</defs>
				<clipPath id="SVGID_40_">
					<use xlink:href="#SVGID_39_"  style="overflow:visible;"/>
				</clipPath>
				<path class="st25" d="M110.46,35.77c-0.64,0.25-1.28,0.51-1.9,0.79c-4.1,1.83-7.83,4.35-11.04,7.41
					c-4.05,3.87-7.27,8.6-9.35,13.9"/>
			</g>
		</g>
		<g class="st13">
			<g>
				<defs>
					<rect id="SVGID_41_" x="65.66" y="13.4" width="117.44" height="117.44"/>
				</defs>
				<clipPath id="SVGID_42_">
					<use xlink:href="#SVGID_41_"  style="overflow:visible;"/>
				</clipPath>
				<path class="st26" d="M99.33,19.3c-3.88,1.84-7.47,4.05-10.73,6.58c-2.36,1.82-4.55,3.8-6.57,5.92c-0.95,1-1.85,2.02-2.72,3.07
					c-2.05,2.48-3.88,5.12-5.48,7.88c-1.31,2.26-2.46,4.6-3.46,7c-1.64,3.97-2.85,8.12-3.59,12.36"/>
				<path class="st26" d="M169.77,35.26c-1.57-1.93-3.24-3.75-5.02-5.44c-0.75-0.71-1.51-1.41-2.29-2.08
					c-5.13-4.39-10.95-7.83-17.17-10.21c-7.86-3.01-16.35-4.33-24.89-3.75"/>
				<path class="st26" d="M182.73,75.92c0.36-5.45-0.04-11-1.27-16.48c-0.58-2.59-1.34-5.17-2.29-7.72
					c-0.59-1.56-1.24-3.12-1.97-4.65"/>
				<path class="st26" d="M173.95,103.13c1.34-2.15,2.54-4.39,3.59-6.68c0.83-1.81,1.56-3.67,2.2-5.55"/>
				<path class="st26" d="M133.67,129.85c2.04-0.33,4.07-0.77,6.09-1.32c3.27-0.89,6.5-2.09,9.67-3.59
					c2.06-0.98,4.03-2.06,5.92-3.23c1.41-0.88,2.77-1.81,4.08-2.79c1.31-0.98,2.57-2.01,3.78-3.08c1.36-1.21,2.65-2.47,3.88-3.78"/>
				<path class="st26" d="M105.03,127.28c2.39,0.84,4.84,1.53,7.33,2.05c2.51,0.53,5.06,0.9,7.63,1.09c1.79,0.14,3.6,0.19,5.41,0.16
					"/>
				<path class="st26" d="M73.56,101.01c1.35,2.39,2.85,4.64,4.48,6.77c2.27,2.96,4.8,5.66,7.54,8.09"/>
				<path class="st26" d="M65.91,72.42c0.01,2.15,0.14,4.3,0.39,6.45c0.25,2.15,0.62,4.31,1.12,6.45"/>
			</g>
		</g>
		<g class="st9">
			<g>
				<defs>
					<rect id="SVGID_43_" x="18.13" y="-34.24" width="212.8" height="212.12"/>
				</defs>
				<clipPath id="SVGID_44_">
					<use xlink:href="#SVGID_43_"  style="overflow:visible;"/>
				</clipPath>
				<path class="st27" d="M18.38,77.66c0.4,7.79,1.63,15.35,3.6,22.58c1.42,5.22,3.23,10.28,5.39,15.14c1.01,2.28,2.1,4.51,3.27,6.7
					c2.75,5.17,5.91,10.07,9.44,14.67c2.88,3.76,6.01,7.32,9.35,10.66c5.53,5.51,11.65,10.41,18.26,14.6"/>
				<path class="st27" d="M94.04-29.57c-4.33,1.29-8.54,2.85-12.62,4.65c-1.72,0.76-3.41,1.57-5.08,2.41
					C65.41-16.94,55.59-9.55,47.28-0.75c-10.5,11.11-18.61,24.46-23.56,39.2"/>
				<path class="st27" d="M210.92,10.5c-2.68-3.75-5.6-7.31-8.73-10.67c-2.47-2.65-5.07-5.17-7.8-7.55"/>
				<path class="st27" d="M227.86,96.67c0.86-3.65,1.53-7.37,2-11.15c0.76-6.11,1-12.37,0.68-18.73c-0.21-4.13-0.66-8.2-1.32-12.19
					c-0.5-2.97-1.12-5.91-1.85-8.79c-0.74-2.88-1.59-5.71-2.55-8.49c-1.08-3.12-2.31-6.17-3.66-9.14"/>
				<path class="st27" d="M203.67,143c3.07-3.44,5.92-7.08,8.53-10.89c2.63-3.85,5.01-7.87,7.12-12.05
					c1.47-2.92,2.82-5.91,4.02-8.97"/>
			</g>
		</g>
		<g class="st28">
			<g>
				<defs>
					<rect id="SVGID_45_" x="23.96" y="-30" width="202.74" height="204.41"/>
				</defs>
				<clipPath id="SVGID_46_">
					<use xlink:href="#SVGID_45_"  style="overflow:visible;"/>
				</clipPath>
				<path class="st29" d="M24.51,91.59c1.42,7.35,3.6,14.35,6.44,20.95c2.05,4.77,4.44,9.33,7.15,13.65c1.27,2.03,2.6,4,4,5.93
					c3.3,4.53,6.96,8.77,10.92,12.66c3.24,3.18,6.69,6.14,10.31,8.86c5.98,4.49,12.46,8.32,19.29,11.41"/>
				<path class="st29" d="M81.96-20.33c-3.94,1.81-7.73,3.85-11.35,6.11c-1.53,0.95-3.03,1.94-4.49,2.97
					C56.48-4.5,48.15,3.83,41.44,13.29C32.96,25.25,27.05,39,24.33,53.66"/>
				<path class="st29" d="M198.27,2.04c-3.05-3.2-6.3-6.19-9.72-8.96c-2.7-2.18-5.51-4.23-8.41-6.13"/>
				<path class="st29" d="M225.9,81.57c0.33-3.58,0.47-7.2,0.41-10.85c-0.09-5.9-0.7-11.87-1.87-17.87
					c-0.76-3.89-1.72-7.69-2.89-11.39c-0.87-2.76-1.85-5.46-2.93-8.09c-1.08-2.64-2.27-5.21-3.56-7.72
					c-1.45-2.82-3.02-5.55-4.7-8.19"/>
				<path class="st29" d="M209.15,128.78c2.46-3.68,4.67-7.51,6.64-11.48c1.98-4,3.7-8.14,5.15-12.39c1.01-2.97,1.88-5.99,2.62-9.06
					"/>
			</g>
		</g>
		<path class="st7" d="M73.4,82.05c0.73,3.75,1.84,7.33,3.29,10.71c1.05,2.44,2.27,4.76,3.65,6.97c0.65,1.04,1.33,2.04,2.05,3.03
			c1.69,2.32,3.56,4.48,5.58,6.47c1.66,1.63,3.42,3.14,5.27,4.53c3.06,2.29,6.36,4.25,9.86,5.83"/>
		<path class="st7" d="M102.75,24.87c-2.01,0.92-3.95,1.97-5.8,3.12c-0.78,0.49-1.55,0.99-2.3,1.52c-4.92,3.45-9.18,7.7-12.61,12.54
			c-4.33,6.11-7.35,13.14-8.74,20.62"/>
		<path class="st7" d="M140.66,22.71c-4.62-1.52-9.49-2.4-14.48-2.56c-2.36-0.08-4.76,0.01-7.16,0.27
			c-1.48,0.16-2.96,0.38-4.45,0.67"/>
		<path class="st7" d="M162.17,36.3c-1.56-1.63-3.22-3.16-4.97-4.58c-1.38-1.12-2.81-2.16-4.3-3.13"/>
		<path class="st7" d="M176.28,76.93c0.17-1.83,0.24-3.68,0.21-5.54c-0.05-3.01-0.36-6.07-0.95-9.13c-0.39-1.99-0.88-3.93-1.48-5.82
			c-0.44-1.41-0.94-2.79-1.5-4.13c-0.55-1.35-1.16-2.66-1.82-3.94c-0.74-1.44-1.54-2.83-2.4-4.18"/>
		<path class="st7" d="M167.72,101.05c1.25-1.88,2.39-3.84,3.39-5.86c1.01-2.05,1.89-4.16,2.63-6.33c0.52-1.52,0.96-3.06,1.34-4.63"
			/>
		<path class="st7" d="M138.11,122.36c2.35-0.64,4.63-1.43,6.82-2.37c3.06-1.3,5.94-2.88,8.64-4.7"/>
		<path class="st7" d="M111.78,122.62c1.85,0.47,3.74,0.83,5.65,1.09c1.91,0.26,3.85,0.42,5.8,0.46"/>
		<g class="st30">
			<g>
				<defs>
					<rect id="SVGID_47_" x="59.09" y="6.56" width="130.94" height="130.47"/>
				</defs>
				<clipPath id="SVGID_48_">
					<use xlink:href="#SVGID_47_"  style="overflow:visible;"/>
				</clipPath>
				<path class="st31" d="M148.5,11.18c-2.15-0.85-4.33-1.58-6.54-2.19c-1.85-0.51-3.71-0.94-5.58-1.29
					c-2.8-0.52-5.62-0.85-8.45-1.01"/>
				<path class="st31" d="M137.58,136.31c1.47-0.3,2.93-0.65,4.38-1.05c2.27-0.63,4.52-1.39,6.73-2.27
					c2.24-0.89,4.43-1.91,6.57-3.05c2.14-1.14,4.24-2.42,6.26-3.82c3.8-2.62,7.38-5.68,10.66-9.18c1.11-1.19,2.18-2.41,3.18-3.66
					c1.93-2.39,3.67-4.88,5.22-7.45c2.16-3.59,3.93-7.33,5.34-11.18c0.37-1,0.71-2.02,1.03-3.04c1.07-3.44,1.85-6.96,2.34-10.5
					c0.52-3.79,0.71-7.62,0.57-11.44c-0.11-2.84-0.4-5.68-0.87-8.49c-0.27-1.62-0.61-3.23-1-4.83c-0.3-1.2-0.63-2.39-0.99-3.57
					c-0.59-1.93-1.28-3.83-2.05-5.71c-0.78-1.88-1.64-3.72-2.6-5.53c-0.5-0.94-1.02-1.88-1.57-2.8c-1.18-1.99-2.47-3.93-3.88-5.81
					c-0.75-1-1.53-1.99-2.35-2.95c-1.65-1.97-3.44-3.86-5.37-5.66c-1.21-1.13-2.45-2.22-3.73-3.24c-0.68-0.55-1.38-1.09-2.08-1.61
					c-1.49-1.11-3.02-2.15-4.58-3.11"/>
				<path class="st31" d="M59.22,79.02c0.58,5.47,1.84,10.87,3.78,16.07c0.65,1.73,1.37,3.44,2.17,5.13
					c1.08,2.27,2.29,4.5,3.65,6.66c1.71,2.73,3.64,5.36,5.79,7.87c1.54,1.8,3.2,3.53,4.96,5.18c1.46,1.37,2.97,2.66,4.52,3.87
					c2.17,1.7,4.42,3.24,6.74,4.62c2.87,1.71,5.83,3.18,8.88,4.42c1.43,0.58,2.87,1.1,4.32,1.58c3.43,1.12,6.94,1.95,10.47,2.48"/>
				<path class="st31" d="M76.58,27.31c-1.83,1.95-3.52,3.99-5.06,6.09c-1.54,2.1-2.95,4.28-4.21,6.51
					c-1.37,2.43-2.58,4.92-3.61,7.47c-0.44,1.07-0.85,2.15-1.22,3.25c-0.83,2.39-1.51,4.82-2.06,7.27"/>
				<path class="st31" d="M112.74,7.63c-2.81,0.51-5.6,1.2-8.34,2.07c-1.9,0.61-3.79,1.3-5.64,2.09c-2.07,0.88-4.11,1.87-6.1,2.97
					c-1.68,0.93-3.32,1.94-4.93,3.02"/>
			</g>
		</g>
		<path class="st7" d="M46.59,150.54c1.79,1.78,3.65,3.51,5.57,5.16c3.01,2.6,6.17,5.05,9.46,7.33c3.33,2.31,6.81,4.44,10.42,6.38
			c3.61,1.94,7.34,3.69,11.2,5.23c7.22,2.89,14.86,5.06,22.84,6.4c2.71,0.46,5.41,0.81,8.1,1.06c5.16,0.48,10.28,0.6,15.33,0.37
			c7.05-0.32,13.97-1.31,20.68-2.93c1.75-0.42,3.49-0.89,5.22-1.39c5.83-1.71,11.49-3.9,16.92-6.52c5.81-2.81,11.36-6.11,16.59-9.87
			c3.89-2.8,7.6-5.85,11.11-9.14c2.02-1.89,3.97-3.87,5.84-5.91c1.41-1.53,2.77-3.11,4.09-4.73c2.15-2.63,4.19-5.37,6.1-8.21
			c1.91-2.84,3.7-5.77,5.35-8.8c0.86-1.58,1.68-3.18,2.47-4.82c1.69-3.51,3.21-7.14,4.54-10.86c0.71-1.99,1.36-4,1.96-6.05
			c1.21-4.16,2.2-8.43,2.94-12.81c0.46-2.76,0.82-5.51,1.07-8.25c0.14-1.48,0.24-2.95,0.32-4.42c0.16-3.13,0.19-6.25,0.09-9.34
			c-0.1-3.09-0.33-6.16-0.69-9.19c-0.4-3.41-0.96-6.78-1.67-10.11c-0.81-3.81-1.82-7.55-3.02-11.22c-1-3.07-2.14-6.08-3.4-9.04
			c-1.88-4.41-4.04-8.68-6.47-12.8"/>
		<path class="st7" d="M53.9-12.92C46.76-7.01,40.36-0.2,34.87,7.38c-1.83,2.53-3.56,5.14-5.18,7.83
			c-2.19,3.63-4.17,7.41-5.94,11.33c-2.24,4.95-4.13,10.11-5.64,15.47c-1.08,3.84-1.97,7.78-2.65,11.81
			c-0.56,3.33-0.97,6.66-1.22,9.96c-0.36,4.63-0.42,9.23-0.2,13.77c0.27,5.62,0.97,11.16,2.08,16.58c0.52,2.54,1.12,5.06,1.81,7.54
			c1.63,5.86,3.74,11.55,6.29,17.02"/>
		<path class="st7" d="M196.95,56.68c-0.55-2.56-1.22-5.07-2.03-7.54"/>
		<path class="st7" d="M175.17,126.18c1.36-1.27,2.66-2.6,3.92-3.97c0.95-1.03,1.86-2.09,2.75-3.17c1.45-1.77,2.81-3.61,4.1-5.51
			c1.28-1.91,2.48-3.88,3.59-5.91c0.58-1.06,1.13-2.14,1.66-3.23c1.14-2.36,2.16-4.79,3.05-7.3c0.48-1.33,0.91-2.69,1.32-4.06
			c0.82-2.79,1.48-5.66,1.97-8.6c0.31-1.85,0.55-3.7,0.72-5.54c0.09-0.99,0.16-1.98,0.21-2.97c0.11-2.1,0.13-4.19,0.06-6.27"/>
		<path class="st7" d="M112.09,145.26c1.82,0.31,3.63,0.54,5.44,0.71c3.46,0.32,6.9,0.4,10.3,0.25c4.73-0.22,9.38-0.88,13.88-1.97
			c1.18-0.28,2.35-0.6,3.5-0.94c3.92-1.15,7.72-2.62,11.36-4.38"/>
		<path class="st7" d="M72.14,124.78c1.2,1.2,2.45,2.35,3.74,3.47c2.02,1.75,4.14,3.39,6.35,4.92c2.24,1.55,4.58,2.98,7,4.28"/>
		<path class="st7" d="M53.02,51.9c-0.73,2.58-1.32,5.22-1.78,7.93c-0.38,2.24-0.65,4.47-0.82,6.69c-0.24,3.11-0.28,6.2-0.13,9.25
			c0.18,3.78,0.65,7.5,1.39,11.13c0.35,1.71,0.75,3.4,1.22,5.06c1.09,3.94,2.51,7.76,4.22,11.43"/>
		<path class="st7" d="M77.05,15.01c-4.79,3.97-9.1,8.54-12.78,13.63c-1.23,1.7-2.39,3.45-3.48,5.26"/>
		<path class="st7" d="M158.58,6.28c-1.93-1-3.91-1.92-5.94-2.75"/>
		<path class="st7" d="M177.88,20.74c-2.24-2.33-4.63-4.53-7.17-6.56"/>
		<g class="st13">
			<g>
				<defs>
					<rect id="SVGID_49_" x="38.42" y="-13.84" width="171.92" height="171.92"/>
				</defs>
				<clipPath id="SVGID_50_">
					<use xlink:href="#SVGID_49_"  style="overflow:visible;"/>
				</clipPath>
				<path class="st32" d="M38.67,72.12c0,6.3,0.68,12.44,1.97,18.35c0.93,4.27,2.18,8.42,3.72,12.42c0.72,1.88,1.51,3.72,2.36,5.54
					c2,4.28,4.35,8.36,7,12.21c2.17,3.15,4.54,6.15,7.1,8.98c4.23,4.67,8.96,8.87,14.12,12.52c1.6,1.13,3.24,2.21,4.92,3.24
					c2.64,1.61,5.37,3.07,8.18,4.39c2.85,1.34,5.78,2.52,8.79,3.54c3.01,1.02,6.1,1.88,9.25,2.56c5.9,1.28,12.02,1.96,18.3,1.96
					c2.13,0,4.25-0.08,6.34-0.23c4.01-0.29,7.94-0.86,11.78-1.69c5.35-1.15,10.52-2.8,15.45-4.9c1.29-0.55,2.56-1.13,3.81-1.74
					c8.79-4.26,16.74-9.99,23.53-16.85c2.62-2.64,5.07-5.46,7.32-8.42c2.28-2.99,4.36-6.14,6.24-9.42c1.31-2.29,2.51-4.65,3.61-7.07
					c1.1-2.42,2.08-4.89,2.96-7.43c0.46-1.32,0.88-2.65,1.27-4c0.84-2.9,1.54-5.88,2.07-8.9c0.87-4.89,1.32-9.92,1.32-15.07
					c0-3.34-0.19-6.63-0.56-9.88c-0.28-2.42-0.65-4.8-1.13-7.16c-0.47-2.35-1.04-4.67-1.71-6.95c-0.74-2.56-1.6-5.07-2.57-7.52
					c-1.11-2.81-2.37-5.54-3.76-8.2c-1.16-2.22-2.42-4.38-3.76-6.48c-2.01-3.13-4.21-6.12-6.6-8.96c-1.88-2.24-3.88-4.38-5.97-6.41
					c-2.68-2.6-5.53-5.02-8.53-7.25c-3-2.23-6.15-4.27-9.43-6.1c-7-3.9-14.6-6.85-22.62-8.68c-3.8-0.86-7.7-1.48-11.67-1.81
					c-2.44-0.21-4.91-0.31-7.4-0.31c-3.5,0-6.95,0.21-10.34,0.62c-3.39,0.41-6.72,1.01-9.98,1.81c-3.54,0.86-7,1.94-10.36,3.23
					C92.29-7.4,90.9-6.82,89.52-6.2c-9.04,4.03-17.26,9.58-24.32,16.33c-8.92,8.52-16,18.94-20.6,30.62
					c-1.2,3.06-2.24,6.21-3.09,9.43C39.66,57.18,38.67,64.54,38.67,72.12z"/>
			</g>
		</g>
		<g class="st5">
			<g>
				<defs>
					<rect id="SVGID_51_" x="24.29" y="-27.97" width="200.19" height="199.92"/>
				</defs>
				<clipPath id="SVGID_52_">
					<use xlink:href="#SVGID_51_"  style="overflow:visible;"/>
				</clipPath>
				<path class="st33" d="M213,25.82c-1.36-2.59-2.82-5.11-4.39-7.56c-2.34-3.65-4.91-7.14-7.69-10.45
					c-2.19-2.61-4.52-5.1-6.97-7.47c-3.12-3.03-6.45-5.86-9.94-8.46"/>
				<path class="st33" d="M203.97,132.62c2.66-3.49,5.09-7.16,7.27-10.98c1.53-2.67,2.93-5.42,4.21-8.24
					c1.28-2.82,2.43-5.71,3.45-8.66c0.53-1.54,1.03-3.1,1.48-4.67c0.99-3.39,1.8-6.85,2.42-10.38c1.01-5.71,1.54-11.58,1.54-17.57
					c0-3.9-0.22-7.74-0.66-11.52c-0.32-2.82-0.76-5.6-1.32-8.35c-0.55-2.74-1.22-5.45-1.99-8.1"/>
				<path class="st33" d="M50.24,139.18c4.93,5.45,10.45,10.35,16.47,14.6c1.87,1.32,3.78,2.58,5.74,3.77
					c3.08,1.87,6.26,3.59,9.54,5.13"/>
				<path class="st33" d="M27.72,46.53c-2.16,8.17-3.3,16.74-3.3,25.59c0,7.34,0.79,14.5,2.3,21.4c1.09,4.98,2.54,9.82,4.34,14.49
					c0.84,2.19,1.76,4.35,2.75,6.46"/>
			</g>
		</g>
		<path class="st7" d="M244.17,24.8c-1.67-4.22-3.55-8.33-5.64-12.32c-1.75-3.33-3.63-6.58-5.65-9.73
			c-3.01-4.71-6.33-9.2-9.91-13.46"/>
		<path class="st7" d="M241.68,125.29c1.65-3.63,3.13-7.35,4.44-11.15c0.68-1.98,1.32-3.99,1.91-6.01
			c1.27-4.36,2.31-8.82,3.12-13.37c1.3-7.35,1.98-14.91,1.98-22.63c0-5.02-0.29-9.97-0.85-14.83c-0.42-3.63-0.98-7.22-1.7-10.75"/>
		<path class="st7" d="M-1.42,99.68c1.4,6.41,3.28,12.65,5.59,18.66c1.09,2.82,2.27,5.6,3.54,8.32c3.01,6.42,6.53,12.56,10.51,18.35
			c3.26,4.73,6.82,9.24,10.66,13.48"/>
		<path class="st7" d="M35.47-21.01c-13.4,12.8-24.04,28.46-30.94,46c-1.81,4.6-3.36,9.33-4.64,14.17"/>
		<path class="st7" d="M252.35,49.78c-0.69-3.96-1.57-7.9-2.64-11.81c-0.56-2.04-1.17-4.07-1.83-6.09
			c-1.43-4.35-3.09-8.66-5.01-12.9c-3.09-6.86-6.83-13.54-11.22-19.97c-2.85-4.18-5.91-8.13-9.14-11.87
			c-2.41-2.79-4.92-5.45-7.53-7.99"/>
		<path class="st7" d="M205.4,173.69c4.76-3.79,9.2-7.86,13.29-12.17c5.71-6.01,10.76-12.49,15.13-19.33"/>
		<path class="st7" d="M-2.5,45.23c-3.88,18.27-3.84,37.36,0.39,55.89c1.11,4.86,2.51,9.68,4.19,14.44"/>
		<g class="st2">
			<g>
				<defs>
					<rect id="SVGID_53_" x="5.2" y="-47.14" width="240.34" height="239.9"/>
				</defs>
				<clipPath id="SVGID_54_">
					<use xlink:href="#SVGID_53_"  style="overflow:visible;"/>
				</clipPath>
				<path class="st34" d="M230.35,14.44c-2.53-4.56-5.35-8.95-8.44-13.15"/>
				<path class="st34" d="M242.74,97.68c1.18-5.5,1.96-11.01,2.36-16.49c0.56-7.65,0.37-15.24-0.52-22.69"/>
				<path class="st34" d="M206.31,161.22c3.2-2.91,6.24-6.01,9.12-9.27c2.92-3.3,5.66-6.78,8.22-10.43
					c2.55-3.64,4.92-7.45,7.08-11.42"/>
				<path class="st34" d="M18.79,127.76c7.94,15.34,19.17,28.96,33.05,39.72c3.64,2.82,7.47,5.45,11.47,7.86"/>
				<path class="st34" d="M53.01-23.16c-4.18,3.15-8.16,6.58-11.91,10.27C33.1-5.02,26.15,4.03,20.54,14.11
					c-2.65,4.77-5.01,9.76-7.03,14.97c-1.24,3.19-2.35,6.47-3.33,9.82c-1.38,4.7-2.45,9.42-3.24,14.14
					c-0.78,4.72-1.28,9.43-1.5,14.11c-0.24,5.1-0.14,10.18,0.27,15.19"/>
			</g>
		</g>
		<path class="st7" d="M226.22,14.45c-2.51-4.41-5.31-8.66-8.37-12.71"/>
		<path class="st7" d="M239.24,95.37c1.09-5.37,1.79-10.75,2.11-16.09c0.45-7.45,0.18-14.84-0.76-22.09"/>
		<path class="st7" d="M204.49,157.67c3.08-2.87,6.01-5.92,8.78-9.13c2.8-3.25,5.43-6.67,7.88-10.25c2.45-3.58,4.71-7.31,6.76-11.2"
			/>
		<path class="st7" d="M21.49,127.22c7.91,14.84,19,27.98,32.64,38.31c3.58,2.71,7.33,5.22,11.25,7.53"/>
		<path class="st7" d="M53.09-20.14c-4.03,3.12-7.87,6.5-11.48,10.14C33.91-2.25,27.24,6.65,21.9,16.52
			c-2.53,4.67-4.77,9.57-6.67,14.66c-1.17,3.13-2.22,6.33-3.13,9.6c-1.29,4.6-2.28,9.2-2.99,13.81c-0.71,4.6-1.14,9.2-1.3,13.76
			c-0.17,4.97-0.02,9.91,0.43,14.79"/>
		<g class="st35">
			<g>
				<defs>
					<rect id="SVGID_55_" x="9.39" y="-42.88" width="229.99" height="229.99"/>
				</defs>
				<clipPath id="SVGID_56_">
					<use xlink:href="#SVGID_55_"  style="overflow:visible;"/>
				</clipPath>
				<path class="st36" d="M215.73,141.57c3.05-4,5.84-8.21,8.35-12.61c1.75-3.07,3.37-6.22,4.84-9.46c1.47-3.24,2.79-6.55,3.96-9.94
					c0.61-1.77,1.18-3.55,1.7-5.36c1.13-3.89,2.06-7.86,2.78-11.91c1.16-6.55,1.77-13.29,1.77-20.17c0-4.47-0.26-8.88-0.75-13.22
					c-0.37-3.24-0.88-6.43-1.51-9.58c-0.64-3.15-1.4-6.25-2.29-9.3c-1-3.42-2.15-6.78-3.45-10.07c-1.49-3.76-3.17-7.42-5.03-10.98
					c-1.56-2.97-3.24-5.86-5.04-8.67"/>
				<path class="st36" d="M17.25,113.31c0.97,2.51,2.02,4.99,3.16,7.41c2.68,5.72,5.82,11.19,9.37,16.35
					c2.9,4.22,6.08,8.23,9.5,12.02c5.66,6.25,12,11.88,18.9,16.76c2.14,1.52,4.34,2.96,6.59,4.33"/>
				<path class="st36" d="M17.57,30.12c-1.61,4.1-3,8.32-4.14,12.63c-2.47,9.37-3.79,19.22-3.79,29.37"/>
			</g>
		</g>
		<g class="st2">
			<g>
				<defs>
					<rect id="SVGID_57_" x="41.76" y="-10.5" width="165.25" height="165.25"/>
				</defs>
				<clipPath id="SVGID_58_">
					<use xlink:href="#SVGID_57_"  style="overflow:visible;"/>
				</clipPath>
				<path class="st37" d="M205.49,86.6c0.83-4.7,1.27-9.54,1.27-14.48c0-3.21-0.18-6.38-0.54-9.49c-0.27-2.32-0.63-4.62-1.08-6.88
					c-0.46-2.26-1-4.49-1.64-6.68c-0.71-2.46-1.54-4.87-2.47-7.23c-1.07-2.7-2.27-5.33-3.61-7.88c-1.12-2.13-2.32-4.21-3.62-6.23
					c-1.93-3.01-4.05-5.89-6.34-8.61c-1.81-2.15-3.72-4.2-5.74-6.16c-2.57-2.5-5.31-4.82-8.19-6.97c-2.88-2.15-5.91-4.11-9.06-5.87"
					/>
				<path class="st37" d="M182.92,130.07c2.52-2.54,4.87-5.25,7.04-8.1c2.19-2.88,4.19-5.9,5.99-9.05c1.26-2.2,2.42-4.47,3.47-6.79
					c1.05-2.32,2-4.7,2.84-7.14"/>
				<path class="st37" d="M81.59,142.52c2.53,1.54,5.16,2.96,7.86,4.22c2.74,1.28,5.56,2.42,8.45,3.4"/>
				<path class="st37" d="M49.74,107.01c1.92,4.11,4.18,8.03,6.73,11.74c2.08,3.03,4.36,5.91,6.82,8.63"/>
				<path class="st37" d="M42.01,72.12c0,6.05,0.65,11.95,1.89,17.63"/>
			</g>
		</g>
		<g class="st2">
			<g>
				<defs>
					<rect id="SVGID_59_" x="118.53" y="66.14" width="11.84" height="11.95"/>
				</defs>
				<clipPath id="SVGID_60_">
					<use xlink:href="#SVGID_59_"  style="overflow:visible;"/>
				</clipPath>
				<path class="st38" d="M129.72,70.01c-0.07-0.19-0.16-0.37-0.25-0.55c-0.08-0.15-0.16-0.29-0.25-0.43
					c-0.13-0.21-0.28-0.41-0.44-0.6c-0.13-0.15-0.26-0.29-0.4-0.43c-0.18-0.17-0.37-0.34-0.57-0.49c-0.2-0.15-0.41-0.29-0.63-0.41
					c-0.47-0.26-0.98-0.46-1.51-0.58c-0.25-0.06-0.51-0.1-0.78-0.12c-0.16-0.01-0.33-0.02-0.5-0.02c-0.23,0-0.46,0.01-0.69,0.04
					c-0.23,0.03-0.45,0.07-0.67,0.12c-0.24,0.06-0.47,0.13-0.69,0.22"/>
				<path class="st38" d="M124.81,77.84c0.27-0.02,0.53-0.06,0.79-0.11c0.36-0.08,0.7-0.19,1.03-0.33c0.09-0.04,0.17-0.08,0.26-0.12
					c0.59-0.28,1.12-0.67,1.57-1.13c0.18-0.18,0.34-0.36,0.49-0.56c0.15-0.2,0.29-0.41,0.42-0.63c0.09-0.15,0.17-0.31,0.24-0.47
					c0.07-0.16,0.14-0.33,0.2-0.5c0.03-0.09,0.06-0.18,0.09-0.27c0.06-0.19,0.1-0.39,0.14-0.6c0.06-0.33,0.09-0.66,0.09-1.01
					c0-0.22-0.01-0.44-0.04-0.66c-0.02-0.16-0.04-0.32-0.07-0.48"/>
				<path class="st38" d="M120.13,75.97c0.28,0.31,0.6,0.59,0.94,0.84c0.11,0.07,0.22,0.15,0.33,0.22c0.18,0.11,0.36,0.21,0.55,0.29
					c0.19,0.09,0.39,0.17,0.59,0.24c0.2,0.07,0.41,0.13,0.62,0.17"/>
				<path class="st38" d="M118.78,73.35c0.06,0.29,0.15,0.56,0.25,0.83c0.05,0.13,0.1,0.25,0.16,0.37"/>
				<path class="st38" d="M120.42,67.97c-0.6,0.57-1.07,1.27-1.38,2.05"/>
			</g>
		</g>
		<path class="st7" d="M204.2,30.41c-1.22-2.33-2.54-4.6-3.95-6.81c-2.11-3.29-4.43-6.43-6.93-9.41"/>
		<path class="st7" d="M213.83,61.75c-0.29-2.54-0.69-5.05-1.19-7.52c-0.5-2.47-1.1-4.9-1.79-7.3"/>
		<path class="st7" d="M209.52,101.5c0.48-1.39,0.92-2.79,1.33-4.2c0.89-3.05,1.62-6.17,2.18-9.35"/>
		<path class="st7" d="M163.65,153.17c9.23-4.48,17.58-10.49,24.72-17.71c2.75-2.78,5.32-5.73,7.69-8.85
			c2.39-3.14,4.58-6.45,6.55-9.89"/>
		<path class="st7" d="M36.41,91.39c0.98,4.48,2.29,8.84,3.91,13.05c0.76,1.97,1.59,3.91,2.48,5.82c2.1,4.49,4.57,8.78,7.35,12.83
			c2.28,3.31,4.77,6.46,7.46,9.43c4.44,4.91,9.41,9.32,14.83,13.15c1.68,1.19,3.41,2.32,5.17,3.4c2.77,1.69,5.64,3.23,8.6,4.62
			c2.99,1.4,6.08,2.65,9.24,3.72"/>
		<path class="st7" d="M87.76-10.16C78.26-5.92,69.63-0.09,62.2,6.99c-9.37,8.95-16.81,19.9-21.64,32.17
			c-1.27,3.22-2.35,6.52-3.25,9.91"/>
		<g class="st30">
			<g>
				<defs>
					<rect id="SVGID_61_" x="83.04" y="30.78" width="82.68" height="82.68"/>
				</defs>
				<clipPath id="SVGID_62_">
					<use xlink:href="#SVGID_61_"  style="overflow:visible;"/>
				</clipPath>
				<path class="st39" d="M164.66,63.95c-0.23-1.13-0.5-2.24-0.82-3.33c-0.36-1.23-0.77-2.43-1.23-3.61
					c-0.53-1.35-1.13-2.66-1.8-3.93c-0.56-1.06-1.16-2.1-1.8-3.11c-0.96-1.5-2.02-2.94-3.16-4.29c-0.9-1.07-1.86-2.1-2.86-3.07
					c-1.29-1.24-2.65-2.41-4.09-3.48c-1.44-1.07-2.95-2.05-4.52-2.93"/>
				<path class="st39" d="M160.08,92.47c0.63-1.1,1.21-2.23,1.73-3.39c0.53-1.16,1-2.35,1.42-3.56c0.22-0.63,0.42-1.27,0.61-1.92
					c0.4-1.39,0.74-2.82,0.99-4.27c0.42-2.35,0.63-4.76,0.63-7.22"/>
				<path class="st39" d="M124.38,113.21c1.02,0,2.03-0.04,3.04-0.11c1.92-0.14,3.81-0.41,5.65-0.81c2.57-0.55,5.04-1.34,7.4-2.35
					c0.62-0.26,1.23-0.54,1.83-0.83c4.21-2.04,8.02-4.79,11.28-8.08"/>
				<path class="st39" d="M106.96,109.34c1.37,0.64,2.77,1.21,4.22,1.7"/>
				<path class="st39" d="M90.51,95.38c1.04,1.51,2.18,2.95,3.4,4.3c2.03,2.24,4.3,4.25,6.77,6"/>
				<path class="st39" d="M83.29,72.12c0,3.02,0.33,5.96,0.94,8.8c0.45,2.05,1.05,4.04,1.78,5.96"/>
				<path class="st39" d="M127.93,31.18c-1.17-0.1-2.35-0.15-3.55-0.15c-1.68,0-3.33,0.1-4.96,0.3s-3.22,0.49-4.78,0.86
					c-1.7,0.41-3.36,0.93-4.97,1.55c-0.68,0.26-1.35,0.54-2.01,0.83c-4.33,1.93-8.27,4.59-11.66,7.83
					c-4.28,4.08-7.67,9.08-9.88,14.68"/>
			</g>
		</g>
		<g class="st2">
			<g>
				<defs>
					<rect id="SVGID_63_" x="57.12" y="4.86" width="134.53" height="133.68"/>
				</defs>
				<clipPath id="SVGID_64_">
					<use xlink:href="#SVGID_63_"  style="overflow:visible;"/>
				</clipPath>
				<path class="st40" d="M187.75,93.92c0.79-2.28,1.45-4.61,1.99-6.98c0.54-2.4,0.96-4.84,1.24-7.31c0.28-2.47,0.42-4.97,0.42-7.49
					c0-4.72-0.51-9.51-1.55-14.3c-0.35-1.63-0.77-3.23-1.23-4.8c-0.89-3.01-1.98-5.92-3.25-8.72c-1.77-3.9-3.89-7.57-6.32-10.98
					c-0.63-0.89-1.29-1.77-1.96-2.62c-4.72-6-10.42-11.12-16.79-15.17c-2.46-1.56-5.01-2.96-7.65-4.19"/>
				<path class="st40" d="M138.66,137.58c4.81-1.05,9.38-2.59,13.68-4.56c3.1-1.42,6.07-3.07,8.87-4.91
					c1.32-0.86,2.59-1.77,3.84-2.72c2.93-2.24,5.66-4.71,8.16-7.38c2.05-2.18,3.94-4.49,5.67-6.92"/>
				<path class="st40" d="M64.16,101.51c1.25,2.56,2.65,5.02,4.19,7.37c0.65,0.99,1.33,1.96,2.02,2.91
					c4.59,6.23,10.19,11.58,16.52,15.85c7.99,5.39,17.14,9.07,26.82,10.63"/>
				<path class="st40" d="M60.23,52.76c-1.82,5.99-2.8,12.29-2.86,18.72c-0.03,3.05,0.16,6.12,0.56,9.21c0.25,1.9,0.58,3.8,0.99,5.7
					"/>
				<path class="st40" d="M138.4,6.59c-2.03-0.43-4.09-0.78-6.16-1.02c-1.08-0.13-2.17-0.23-3.27-0.3c-2.36-0.16-4.74-0.2-7.14-0.1
					c-3.88,0.15-7.8,0.65-11.72,1.5c-2.55,0.56-5.04,1.25-7.45,2.08c-1.8,0.61-3.56,1.3-5.28,2.06c-1.72,0.75-3.39,1.58-5.02,2.46
					c-1.83,0.99-3.6,2.07-5.31,3.22c-1.96,1.32-3.84,2.73-5.64,4.23c-1.5,1.26-2.94,2.58-4.32,3.95c-2.06,2.05-3.97,4.24-5.74,6.53
					c-1.39,1.81-2.7,3.69-3.9,5.63"/>
			</g>
		</g>
		<g class="st28">
			<g>
				<defs>
					<rect id="SVGID_65_" x="116.27" y="63.82" width="16.36" height="16.6"/>
				</defs>
				<clipPath id="SVGID_66_">
					<use xlink:href="#SVGID_65_"  style="overflow:visible;"/>
				</clipPath>
				<path class="st41" d="M132.5,71.18c-0.03-0.23-0.06-0.46-0.11-0.68c-0.05-0.22-0.1-0.44-0.16-0.66
					c-0.07-0.24-0.15-0.48-0.24-0.72c-0.11-0.27-0.23-0.53-0.36-0.78c-0.11-0.21-0.23-0.42-0.36-0.62c-0.19-0.3-0.4-0.58-0.63-0.85
					c-0.18-0.21-0.37-0.42-0.57-0.61c-0.26-0.25-0.53-0.48-0.81-0.69c-0.29-0.21-0.59-0.41-0.9-0.58c-0.67-0.37-1.39-0.65-2.16-0.83
					c-0.36-0.08-0.73-0.14-1.11-0.17c-0.23-0.02-0.47-0.03-0.71-0.03c-0.33,0-0.66,0.02-0.99,0.06s-0.64,0.1-0.95,0.17"/>
				<path class="st41" d="M130.19,77.87c0.25-0.25,0.48-0.52,0.7-0.8c0.22-0.29,0.42-0.59,0.6-0.9c0.13-0.22,0.24-0.44,0.34-0.67
					c0.1-0.23,0.2-0.47,0.28-0.71c0.04-0.13,0.08-0.25,0.12-0.38c0.08-0.28,0.15-0.56,0.2-0.85"/>
				<path class="st41" d="M121.76,79.86c0.29,0.1,0.58,0.18,0.88,0.25c0.56,0.12,1.15,0.19,1.75,0.19c0.2,0,0.4-0.01,0.6-0.02
					c0.38-0.03,0.76-0.08,1.12-0.16c0.51-0.11,1-0.27,1.47-0.47"/>
				<path class="st41" d="M117.64,76.75c0.21,0.3,0.43,0.59,0.68,0.86c0.4,0.44,0.86,0.85,1.35,1.19c0.15,0.11,0.31,0.21,0.47,0.31"
					/>
				<path class="st41" d="M116.4,73.87c0.09,0.41,0.21,0.8,0.35,1.19"/>
				<path class="st41" d="M121.06,64.65c-0.86,0.38-1.65,0.91-2.32,1.56"/>
			</g>
		</g>
		<g class="st30">
			<g>
				<defs>
					<rect id="SVGID_67_" x="67.65" y="15.38" width="113.47" height="113.47"/>
				</defs>
				<clipPath id="SVGID_68_">
					<use xlink:href="#SVGID_67_"  style="overflow:visible;"/>
				</clipPath>
				<path class="st42" d="M181,72.12c0-2.21-0.13-4.38-0.37-6.52c-0.18-1.6-0.43-3.17-0.75-4.73c-0.31-1.55-0.69-3.08-1.13-4.59
					c-0.49-1.69-1.06-3.35-1.7-4.97c-0.73-1.86-1.56-3.66-2.48-5.42c-0.77-1.47-1.6-2.89-2.49-4.28"/>
				<path class="st42" d="M173.57,100.16c0.86-1.51,1.66-3.07,2.39-4.67c0.73-1.6,1.38-3.23,1.96-4.9c0.3-0.87,0.58-1.75,0.84-2.64"
					/>
				<path class="st42" d="M124.38,128.73c1.41,0,2.8-0.05,4.19-0.15c2.65-0.19,5.24-0.57,7.78-1.12c3.54-0.76,6.95-1.85,10.2-3.24
					c0.85-0.36,1.69-0.74,2.52-1.15c5.8-2.82,11.05-6.6,15.54-11.13"/>
				<path class="st42" d="M71.68,51.4c-0.8,2.02-1.48,4.1-2.04,6.23c-1.22,4.62-1.87,9.48-1.87,14.49c0,4.16,0.45,8.21,1.3,12.12
					c0.62,2.82,1.44,5.56,2.46,8.2c0.48,1.24,1,2.46,1.56,3.66c1.32,2.82,2.87,5.52,4.62,8.07c1.43,2.08,3,4.06,4.69,5.93
					c2.79,3.08,5.92,5.86,9.33,8.27c1.06,0.75,2.14,1.46,3.25,2.14c1.74,1.06,3.55,2.03,5.4,2.9c1.88,0.88,3.82,1.66,5.81,2.34"/>
				<path class="st42" d="M163.78,31.47c-1.77-1.71-3.65-3.32-5.63-4.79c-1.98-1.47-4.06-2.82-6.23-4.03
					c-4.62-2.58-9.64-4.53-14.94-5.73c-2.51-0.57-5.08-0.97-7.71-1.2c-1.61-0.14-3.24-0.21-4.89-0.21c-2.31,0-4.59,0.14-6.83,0.41
					c-2.24,0.27-4.44,0.67-6.59,1.19c-2.34,0.57-4.63,1.28-6.84,2.13c-0.93,0.36-1.86,0.74-2.77,1.15"/>
			</g>
		</g>
		<path class="st7" d="M202.88,24.93c-1.45-2.42-3.02-4.77-4.69-7.06c-1.68-2.29-3.47-4.5-5.37-6.64c-0.99-1.11-2.01-2.21-3.06-3.28
			"/>
		<path class="st7" d="M204.24,116.93c1.11-1.99,2.15-4,3.1-6.03c1.82-3.89,3.35-7.85,4.59-11.86c1.73-5.59,2.89-11.26,3.51-16.96
			c0.16-1.49,0.29-2.97,0.38-4.46c0.62-10.42-0.55-20.82-3.4-30.74"/>
		<path class="st7" d="M53.44,130.06c2.22,2.72,4.62,5.33,7.17,7.81c5.56,5.38,11.89,10.14,18.96,14.11
			c5.87,3.29,11.94,5.87,18.12,7.76c4.46,1.37,8.98,2.37,13.52,3.03c2.13,0.31,4.26,0.54,6.39,0.7c5.03,0.37,10.06,0.32,15.04-0.14
			c4.07-0.37,8.1-1.01,12.07-1.92c6.56-1.5,12.95-3.71,19.05-6.61c1.89-0.9,3.76-1.86,5.59-2.9c2.88-1.62,5.67-3.39,8.37-5.33
			c2.74-1.96,5.37-4.07,7.9-6.34"/>
		<path class="st7" d="M98.22-15.64c-3.82,1.14-7.57,2.53-11.21,4.15c-3.65,1.63-7.19,3.49-10.62,5.6
			C69.1-1.41,62.38,4.12,56.48,10.65c-2.79,3.09-5.4,6.4-7.79,9.93c-1.47,2.16-2.86,4.41-4.16,6.73c-1.83,3.26-3.44,6.59-4.83,9.96
			c-1.39,3.37-2.57,6.79-3.53,10.24c-1.05,3.75-1.85,7.54-2.41,11.34c-0.23,1.6-0.43,3.21-0.57,4.81"/>
		<path class="st7" d="M175.28,19.6c-2.29-2.22-4.72-4.28-7.27-6.19c-2.56-1.9-5.25-3.65-8.05-5.21"/>
		<path class="st7" d="M191.01,102.32c0.94-2.06,1.78-4.18,2.52-6.34c0.39-1.13,0.75-2.26,1.08-3.42c0.72-2.48,1.31-5.01,1.77-7.59
			c0.74-4.17,1.13-8.47,1.13-12.86c0-2.85-0.16-5.66-0.48-8.43c-0.24-2.06-0.56-4.1-0.96-6.11c-0.4-2.01-0.89-3.98-1.46-5.93
			c-0.63-2.18-1.37-4.32-2.2-6.42c-0.95-2.4-2.02-4.73-3.2-7c-0.99-1.89-2.06-3.74-3.21-5.53"/>
		<path class="st7" d="M176.36,123.57c2.23-2.26,4.32-4.66,6.25-7.19"/>
		<path class="st7" d="M100.88,141.4c2.57,0.87,5.2,1.6,7.89,2.19c5.03,1.1,10.26,1.67,15.62,1.67c1.82,0,3.62-0.07,5.41-0.2
			c3.42-0.25,6.78-0.74,10.05-1.44c4.57-0.98,8.97-2.39,13.18-4.18"/>
		<path class="st7" d="M51.25,72.12c0,5.37,0.58,10.61,1.68,15.66c0.79,3.64,1.86,7.18,3.17,10.6c0.62,1.6,1.29,3.18,2.01,4.72
			c1.71,3.65,3.71,7.13,5.97,10.42c1.85,2.69,3.88,5.25,6.06,7.66c3.61,3.99,7.65,7.57,12.05,10.68c1.37,0.97,2.77,1.89,4.2,2.76"/>
		<path class="st7" d="M130.7-0.75c-2.08-0.18-4.19-0.27-6.31-0.27c-2.99,0-5.93,0.18-8.82,0.53c-2.89,0.35-5.73,0.86-8.51,1.54
			c-3.02,0.74-5.97,1.66-8.84,2.76c-1.21,0.46-2.4,0.96-3.58,1.48"/>
		<g class="st28">
			<g>
				<defs>
					<rect id="SVGID_69_" x="113.41" y="61.15" width="21.94" height="21.94"/>
				</defs>
				<clipPath id="SVGID_70_">
					<use xlink:href="#SVGID_69_"  style="overflow:visible;"/>
				</clipPath>
				<path class="st43" d="M132.69,65.14c-0.24-0.28-0.49-0.55-0.76-0.81c-0.34-0.33-0.7-0.64-1.08-0.92"/>
				<path class="st43" d="M133.02,78.68c0.29-0.38,0.55-0.78,0.79-1.19c0.17-0.29,0.32-0.59,0.46-0.89
					c0.14-0.31,0.26-0.62,0.38-0.94c0.06-0.17,0.11-0.34,0.16-0.51c0.11-0.37,0.19-0.74,0.26-1.13c0.11-0.62,0.17-1.26,0.17-1.91
					c0-0.42-0.02-0.84-0.07-1.25c-0.04-0.31-0.08-0.61-0.14-0.91c-0.06-0.3-0.13-0.59-0.22-0.88c-0.09-0.32-0.2-0.64-0.33-0.95
					c-0.14-0.36-0.3-0.7-0.47-1.04"/>
				<path class="st43" d="M120.9,82.39c0.38,0.13,0.77,0.24,1.17,0.32c0.75,0.16,1.52,0.25,2.32,0.25c0.27,0,0.54-0.01,0.8-0.03
					c0.51-0.04,1.01-0.11,1.49-0.21c0.68-0.15,1.33-0.35,1.95-0.62c0.16-0.07,0.32-0.14,0.48-0.22"/>
				<path class="st43" d="M113.9,69.34c-0.23,0.89-0.36,1.82-0.36,2.78c0,0.8,0.09,1.57,0.25,2.32c0.12,0.54,0.27,1.06,0.47,1.57
					c0.09,0.24,0.19,0.47,0.3,0.7c0.25,0.54,0.55,1.06,0.89,1.54c0.27,0.4,0.57,0.78,0.9,1.14c0.54,0.59,1.13,1.12,1.79,1.58
					c0.2,0.14,0.41,0.28,0.62,0.41"/>
				<path class="st43" d="M126.8,61.54c-0.48-0.11-0.97-0.19-1.48-0.23c-0.31-0.03-0.62-0.04-0.94-0.04c-0.44,0-0.88,0.03-1.31,0.08
					c-0.43,0.05-0.85,0.13-1.26,0.23c-0.45,0.11-0.89,0.25-1.31,0.41c-0.18,0.07-0.36,0.14-0.53,0.22
					c-1.14,0.51-2.18,1.21-3.08,2.07"/>
			</g>
		</g>
		<g class="st5">
			<g>
				<defs>
					<rect id="SVGID_71_" x="114.24" y="61.97" width="20.29" height="20.29"/>
				</defs>
				<clipPath id="SVGID_72_">
					<use xlink:href="#SVGID_71_"  style="overflow:visible;"/>
				</clipPath>
				<path class="st44" d="M132.98,77.02c0.15-0.26,0.29-0.54,0.42-0.82s0.24-0.57,0.34-0.86c0.05-0.15,0.1-0.31,0.15-0.46
					c0.1-0.33,0.18-0.68,0.24-1.03c0.1-0.57,0.15-1.15,0.15-1.74c0-0.39-0.02-0.77-0.07-1.14c-0.03-0.28-0.07-0.55-0.13-0.83
					c-0.05-0.27-0.12-0.54-0.2-0.8c-0.09-0.29-0.19-0.58-0.3-0.87c-0.13-0.32-0.27-0.64-0.43-0.95c-0.13-0.26-0.28-0.51-0.43-0.75
					c-0.23-0.36-0.49-0.71-0.76-1.03c-0.22-0.26-0.45-0.51-0.69-0.74c-0.31-0.3-0.64-0.58-0.99-0.84"/>
				<path class="st44" d="M121.2,81.49c0.35,0.12,0.7,0.22,1.07,0.3c0.68,0.15,1.39,0.23,2.11,0.23c0.25,0,0.49-0.01,0.73-0.03
					c0.46-0.03,0.92-0.1,1.36-0.19c0.62-0.13,1.21-0.32,1.78-0.57"/>
				<path class="st44" d="M114.49,72.12c0,0.73,0.08,1.44,0.23,2.12c0.11,0.49,0.25,0.97,0.43,1.43c0.08,0.22,0.17,0.43,0.27,0.64
					c0.23,0.49,0.5,0.97,0.81,1.41c0.25,0.36,0.52,0.71,0.82,1.04c0.49,0.54,1.03,1.02,1.63,1.44c0.18,0.13,0.38,0.26,0.57,0.37"/>
				<path class="st44" d="M120.84,62.88c-0.16,0.06-0.33,0.13-0.48,0.2c-1.04,0.47-1.99,1.11-2.81,1.89
					c-1.03,0.98-1.85,2.19-2.38,3.53"/>
				<path class="st44" d="M126.58,62.47c-0.44-0.1-0.89-0.17-1.35-0.21c-0.28-0.02-0.57-0.04-0.86-0.04c-0.4,0-0.8,0.02-1.19,0.07"
					/>
			</g>
		</g>
		<g class="st5">
			<g>
				<defs>
					<rect id="SVGID_73_" x="103.39" y="51.13" width="41.98" height="41.98"/>
				</defs>
				<clipPath id="SVGID_74_">
					<use xlink:href="#SVGID_73_"  style="overflow:visible;"/>
				</clipPath>
				<path class="st45" d="M139.12,86.71c0.63-0.64,1.23-1.32,1.77-2.04c0.55-0.72,1.06-1.49,1.51-2.28
					c0.32-0.55,0.61-1.13,0.87-1.71c0.26-0.58,0.51-1.18,0.72-1.8c0.11-0.32,0.21-0.64,0.31-0.97c0.2-0.7,0.37-1.42,0.5-2.15
					c0.21-1.18,0.32-2.4,0.32-3.65c0-0.81-0.05-1.61-0.14-2.39c-0.07-0.58-0.16-1.16-0.27-1.73c-0.12-0.57-0.25-1.13-0.41-1.68
					c-0.18-0.62-0.39-1.23-0.62-1.82c-0.27-0.68-0.57-1.34-0.91-1.99c-0.28-0.54-0.58-1.06-0.91-1.57c-0.49-0.76-1.02-1.48-1.6-2.17
					c-0.46-0.54-0.94-1.06-1.45-1.55c-0.65-0.63-1.34-1.21-2.06-1.75c-0.73-0.54-1.49-1.03-2.28-1.48c-1.69-0.94-3.53-1.66-5.48-2.1
					c-0.92-0.21-1.86-0.36-2.82-0.44c-0.59-0.05-1.19-0.08-1.79-0.08c-0.85,0-1.68,0.05-2.5,0.15c-0.82,0.1-1.63,0.25-2.41,0.44
					c-0.86,0.21-1.69,0.47-2.51,0.78c-0.34,0.13-0.68,0.27-1.01,0.42"/>
				<path class="st45" d="M117.72,91.77c0.73,0.25,1.47,0.46,2.24,0.62c1.43,0.31,2.91,0.47,4.43,0.47c0.52,0,1.03-0.02,1.53-0.06
					c0.97-0.07,1.92-0.21,2.85-0.41c1.29-0.28,2.54-0.68,3.74-1.19"/>
				<path class="st45" d="M105.07,64.53c-0.29,0.74-0.54,1.5-0.75,2.28c-0.45,1.69-0.69,3.47-0.69,5.31c0,1.52,0.16,3.01,0.48,4.44
					c0.22,1.03,0.53,2.04,0.9,3.01c0.18,0.46,0.37,0.9,0.57,1.34c0.48,1.04,1.05,2.02,1.69,2.96c0.52,0.76,1.1,1.49,1.72,2.17
					c1.02,1.13,2.17,2.15,3.42,3.03c0.39,0.27,0.79,0.53,1.19,0.78"/>
			</g>
		</g>
		<g class="st5">
			<g>
				<defs>
					<rect id="SVGID_75_" x="97.44" y="44.82" width="53.8" height="54.61"/>
				</defs>
				<clipPath id="SVGID_76_">
					<use xlink:href="#SVGID_75_"  style="overflow:visible;"/>
				</clipPath>
				<path class="st46" d="M150.98,66.53c-0.24-1.15-0.56-2.29-0.95-3.41c-0.39-1.13-0.86-2.23-1.4-3.29
					c-0.38-0.75-0.79-1.48-1.24-2.19c-0.45-0.71-0.93-1.41-1.45-2.08c-0.27-0.35-0.55-0.7-0.84-1.03c-0.62-0.73-1.29-1.43-1.99-2.1
					c-1.14-1.08-2.4-2.08-3.76-2.98c-0.88-0.58-1.79-1.11-2.71-1.58c-0.69-0.35-1.39-0.66-2.09-0.95c-0.71-0.28-1.42-0.54-2.14-0.76
					c-0.81-0.25-1.62-0.46-2.44-0.63c-0.94-0.2-1.88-0.34-2.82-0.44c-0.79-0.08-1.58-0.13-2.37-0.14c-1.18-0.02-2.36,0.05-3.52,0.18
					c-0.92,0.11-1.83,0.26-2.74,0.46c-1.15,0.26-2.29,0.59-3.41,0.99c-1.11,0.4-2.2,0.88-3.26,1.43c-2.25,1.17-4.36,2.67-6.25,4.47
					c-0.89,0.86-1.73,1.78-2.52,2.77c-0.48,0.61-0.94,1.24-1.38,1.9c-0.61,0.93-1.16,1.88-1.64,2.85c-0.48,0.97-0.91,1.95-1.26,2.95
					c-0.39,1.09-0.71,2.19-0.95,3.31c-0.1,0.47-0.19,0.94-0.27,1.41"/>
				<path class="st46" d="M141.06,93.58c0.8-0.62,1.56-1.28,2.29-2c1.37-1.34,2.62-2.84,3.71-4.5c0.37-0.56,0.72-1.14,1.05-1.72
					c0.62-1.11,1.16-2.25,1.61-3.41c0.63-1.62,1.1-3.27,1.4-4.94"/>
				<path class="st46" d="M102.15,87.76c0.6,0.85,1.25,1.68,1.96,2.46c1.53,1.71,3.31,3.26,5.31,4.58c1.67,1.1,3.41,1.99,5.2,2.68
					c1.29,0.5,2.61,0.89,3.94,1.18c0.62,0.14,1.25,0.25,1.88,0.34c1.48,0.22,2.97,0.31,4.46,0.28c1.21-0.02,2.42-0.13,3.61-0.31
					c1.97-0.3,3.91-0.82,5.78-1.55c0.58-0.23,1.15-0.47,1.72-0.74"/>
			</g>
		</g>
		<g class="st9">
			<g>
				<defs>
					<rect id="SVGID_77_" x="74.91" y="21.49" width="100.11" height="101.26"/>
				</defs>
				<clipPath id="SVGID_78_">
					<use xlink:href="#SVGID_77_"  style="overflow:visible;"/>
				</clipPath>
				<path class="st47" d="M113.63,121.35c3.47,0.75,7.07,1.15,10.76,1.15c1.25,0,2.5-0.05,3.73-0.14c2.36-0.17,4.67-0.51,6.92-0.99
					c3.15-0.68,6.18-1.65,9.08-2.88c0.76-0.32,1.5-0.66,2.24-1.02c5.17-2.51,9.84-5.87,13.83-9.91c1.54-1.55,2.98-3.21,4.3-4.95
					c1.34-1.76,2.57-3.61,3.67-5.54c0.77-1.35,1.48-2.73,2.12-4.15c0.64-1.42,1.23-2.88,1.74-4.37c0.27-0.78,0.52-1.56,0.75-2.35
					c0.5-1.71,0.9-3.45,1.22-5.23c0.51-2.88,0.77-5.83,0.77-8.86c0-1.96-0.11-3.9-0.33-5.81c-0.16-1.42-0.39-2.82-0.66-4.21
					c-0.28-1.38-0.61-2.74-1-4.08c-0.44-1.5-0.94-2.98-1.51-4.42c-0.65-1.65-1.39-3.26-2.21-4.82c-0.68-1.3-1.42-2.57-2.21-3.81
					c-1.18-1.84-2.48-3.6-3.88-5.27"/>
				<path class="st47" d="M82.85,100.64c1.27,1.85,2.67,3.61,4.17,5.28c2.49,2.75,5.27,5.22,8.3,7.36c0.94,0.67,1.91,1.3,2.89,1.9
					c1.55,0.94,3.16,1.81,4.81,2.58"/>
				<path class="st47" d="M75.16,82.9c0.55,2.51,1.28,4.95,2.19,7.3"/>
				<path class="st47" d="M77.48,53.68c-0.71,1.8-1.32,3.65-1.82,5.55"/>
				<path class="st47" d="M128.73,21.92c-1.43-0.12-2.88-0.18-4.35-0.18c-2.06,0-4.09,0.12-6.08,0.36c-1.99,0.24-3.95,0.6-5.86,1.06
					c-2.08,0.51-4.12,1.14-6.09,1.9c-0.83,0.32-1.65,0.66-2.46,1.02"/>
				<path class="st47" d="M154.43,31.68c-1.76-1.31-3.61-2.51-5.54-3.59"/>
			</g>
		</g>
		<g class="st5">
			<g>
				<defs>
					<rect id="SVGID_79_" x="64.64" y="12.38" width="119.48" height="119.48"/>
				</defs>
				<clipPath id="SVGID_80_">
					<use xlink:href="#SVGID_79_"  style="overflow:visible;"/>
				</clipPath>
				<path class="st48" d="M175.42,102.92c2.16-3.59,3.98-7.47,5.39-11.61c0.48-1.4,0.9-2.81,1.27-4.22c0.7-2.71,1.21-5.42,1.53-8.13
					c0.44-3.78,0.51-7.55,0.23-11.27c-0.07-0.97-0.17-1.94-0.29-2.9c-0.84-6.74-2.83-13.25-5.83-19.27
					c-1.15-2.32-2.46-4.56-3.91-6.71c-1.46-2.17-3.06-4.25-4.8-6.21c-1.21-1.38-2.5-2.7-3.84-3.96c-1.35-1.26-2.76-2.47-4.23-3.61
					c-0.77-0.6-1.55-1.17-2.35-1.73c-1.72-1.21-3.52-2.33-5.39-3.36c-3.03-1.67-6.24-3.09-9.62-4.24c-2.2-0.75-4.41-1.36-6.63-1.84
					c-1.65-0.36-3.31-0.64-4.96-0.86c-1.65-0.21-3.31-0.36-4.96-0.43c-1.85-0.08-3.69-0.08-5.53,0.01c-2.1,0.1-4.18,0.32-6.24,0.64
					c-1.72,0.27-3.43,0.61-5.11,1.03c-2.51,0.62-4.97,1.4-7.38,2.34"/>
				<path class="st48" d="M140.51,129.5c2.56-0.72,5.06-1.61,7.5-2.66c4.02-1.74,7.85-3.91,11.4-6.49c1.1-0.8,2.18-1.64,3.23-2.52
					c1.65-1.38,3.23-2.85,4.73-4.4"/>
				<path class="st48" d="M117.71,131.36c3.02,0.34,6.03,0.45,9.01,0.33"/>
				<path class="st48" d="M85.87,117.62c1.75,1.48,3.59,2.86,5.52,4.15"/>
				<path class="st48" d="M69.82,48.13c-0.68,1.56-1.31,3.16-1.86,4.8c-0.78,2.3-1.42,4.62-1.91,6.95
					c-0.49,2.32-0.84,4.65-1.04,6.97c-0.23,2.53-0.29,5.04-0.19,7.54c0.04,1.05,0.11,2.1,0.21,3.15"/>
				<path class="st48" d="M90.53,23.06c-2.14,1.48-4.19,3.09-6.13,4.84"/>
			</g>
		</g>
		<g class="st28">
			<g>
				<defs>
					<rect id="SVGID_81_" x="165.45" y="16.27" width="17.55" height="18.78"/>
				</defs>
				<clipPath id="SVGID_82_">
					<use xlink:href="#SVGID_81_"  style="overflow:visible;"/>
				</clipPath>
				<path class="st49" d="M182.74,34.8c-1.62-2.53-3.4-4.95-5.33-7.24c-1.52-1.81-3.13-3.54-4.83-5.18
					c-2.16-2.1-4.47-4.06-6.89-5.86"/>
			</g>
		</g>
		<g class="st9">
			<g>
				<defs>
					<rect id="SVGID_83_" x="188.57" y="46.42" width="2.58" height="6.58"/>
				</defs>
				<clipPath id="SVGID_84_">
					<use xlink:href="#SVGID_83_"  style="overflow:visible;"/>
				</clipPath>
				<path class="st50" d="M190.9,52.74c-0.6-2.07-1.3-4.09-2.08-6.08"/>
			</g>
		</g>
		<path class="st4" d="M192.58,84.29c0.7-3.95,1.07-8.02,1.07-12.17c0-2.7-0.15-5.36-0.45-7.98"/>
		<path class="st4" d="M187.48,100.72c0.89-1.95,1.68-3.96,2.39-6"/>
		<g class="st9">
			<g>
				<defs>
					<rect id="SVGID_85_" x="154.34" y="113.79" width="25.43" height="20.93"/>
				</defs>
				<clipPath id="SVGID_86_">
					<use xlink:href="#SVGID_85_"  style="overflow:visible;"/>
				</clipPath>
				<path class="st51" d="M154.59,134.47c7.1-3.45,13.52-8.07,19.02-13.62c2.12-2.14,4.09-4.41,5.92-6.81"/>
			</g>
		</g>
		<path class="st7" d="M124.38,141.38c1.72,0,3.43-0.06,5.12-0.19c3.24-0.24,6.42-0.7,9.52-1.36"/>
		<g class="st2">
			<g>
				<defs>
					<rect id="SVGID_87_" x="84.18" y="128.45" width="18.2" height="9.53"/>
				</defs>
				<clipPath id="SVGID_88_">
					<use xlink:href="#SVGID_87_"  style="overflow:visible;"/>
				</clipPath>
				<path class="st52" d="M84.43,128.7c1.29,0.92,2.62,1.79,3.98,2.62c2.13,1.3,4.34,2.48,6.61,3.55c2.3,1.08,4.67,2.04,7.11,2.86"
					/>
			</g>
		</g>
		<path class="st4" d="M61.63,101.46c1.62,3.46,3.51,6.75,5.66,9.87"/>
		<path class="st4" d="M55.12,72.12c0,5.09,0.55,10.05,1.59,14.83"/>
		<g class="st5">
			<g>
				<defs>
					<rect id="SVGID_89_" x="59.66" y="2.61" width="80.38" height="44.41"/>
				</defs>
				<clipPath id="SVGID_90_">
					<use xlink:href="#SVGID_89_"  style="overflow:visible;"/>
				</clipPath>
				<path class="st53" d="M139.79,4.58c-3.07-0.7-6.22-1.19-9.43-1.47c-1.97-0.17-3.97-0.26-5.98-0.26c-2.83,0-5.62,0.17-8.36,0.5
					c-2.74,0.33-5.43,0.82-8.06,1.46c-2.86,0.7-5.66,1.57-8.37,2.61c-1.14,0.44-2.27,0.91-3.39,1.4
					c-7.31,3.26-13.95,7.74-19.65,13.19c-7.21,6.88-12.93,15.31-16.65,24.74"/>
			</g>
		</g>
		<g class="st13">
			<g>
				<defs>
					<rect id="SVGID_91_" x="46.62" y="-5.64" width="155.53" height="155.53"/>
				</defs>
				<clipPath id="SVGID_92_">
					<use xlink:href="#SVGID_91_"  style="overflow:visible;"/>
				</clipPath>
				<path class="st54" d="M124.38-5.4c-3.17,0-6.29,0.19-9.35,0.56c-3.07,0.37-6.08,0.92-9.02,1.63c-3.21,0.78-6.33,1.76-9.37,2.92
					c-1.28,0.49-2.54,1.01-3.79,1.57"/>
				<path class="st54" d="M183.73,22.25c-1.7-2.02-3.51-3.96-5.4-5.8c-1.5-1.45-3.06-2.85-4.67-4.18"/>
				<path class="st54" d="M196.5,43.63c-1-2.54-2.14-5.01-3.4-7.42"/>
				<path class="st54" d="M200.7,85.74c0.33-1.84,0.59-3.71,0.78-5.59c0.27-2.64,0.41-5.32,0.41-8.03c0-3.02-0.17-6-0.51-8.93
					c-0.25-2.19-0.59-4.34-1.02-6.47"/>
				<path class="st54" d="M179.47,126.65c2.37-2.39,4.58-4.94,6.62-7.62c2.06-2.71,3.95-5.55,5.64-8.52"/>
				<path class="st54" d="M66.9,124.12c3.82,4.22,8.1,8.02,12.77,11.32c1.45,1.02,2.93,2,4.45,2.93c2.39,1.45,4.86,2.78,7.4,3.97"/>
				<path class="st54" d="M49.43,52.28c-1.67,6.33-2.56,12.98-2.56,19.84c0,5.7,0.61,11.25,1.78,16.59
					c0.84,3.86,1.97,7.61,3.36,11.24c0.65,1.7,1.37,3.37,2.13,5.01"/>
				<path class="st54" d="M70.85,16.05c-4.03,3.85-7.65,8.14-10.78,12.78"/>
			</g>
		</g>
		<path class="st4" d="M13.44,61.61c-0.43,4.53-0.58,9.02-0.47,13.46c0.11,4.44,0.49,8.82,1.11,13.13c0.68,4.69,1.66,9.3,2.91,13.81
			c0.53,1.9,1.11,3.78,1.73,5.64"/>
		<path class="st4" d="M209.9,0.67c-3.1-3.71-6.45-7.23-10.01-10.51c-3.59-3.32-7.41-6.4-11.43-9.23"/>
		<path class="st4" d="M230.55,106.08c2.38-7.48,4.01-15.32,4.78-23.45c0.26-2.76,0.42-5.51,0.48-8.23
			c0.11-5.23-0.14-10.39-0.74-15.46"/>
		<path class="st4" d="M191.02,161.45c6.56-4.9,12.58-10.51,17.94-16.74c1.66-1.93,3.26-3.93,4.79-5.98
			c2.4-3.22,4.64-6.57,6.69-10.05"/>
		<path class="st4" d="M36.88,141.13c4.97,6.29,10.61,12.05,16.82,17.16"/>
	</g>
</g>
</svg>
